{
	"patcher" : 	{
		"fileversion" : 1,
		"appversion" : 		{
			"major" : 8,
			"minor" : 5,
			"revision" : 4,
			"architecture" : "x64",
			"modernui" : 1
		}
,
		"classnamespace" : "box",
		"rect" : [ 224.0, 203.0, 708.0, 668.0 ],
		"bglocked" : 0,
		"openinpresentation" : 0,
		"default_fontsize" : 12.0,
		"default_fontface" : 0,
		"default_fontname" : "Arial",
		"gridonopen" : 1,
		"gridsize" : [ 15.0, 15.0 ],
		"gridsnaponopen" : 1,
		"objectsnaponopen" : 1,
		"statusbarvisible" : 2,
		"toolbarvisible" : 1,
		"lefttoolbarpinned" : 0,
		"toptoolbarpinned" : 0,
		"righttoolbarpinned" : 0,
		"bottomtoolbarpinned" : 0,
		"toolbars_unpinned_last_save" : 0,
		"tallnewobj" : 0,
		"boxanimatetime" : 200,
		"enablehscroll" : 1,
		"enablevscroll" : 1,
		"devicewidth" : 0.0,
		"description" : "",
		"digest" : "",
		"tags" : "",
		"style" : "",
		"subpatcher_template" : "",
		"assistshowspatchername" : 0,
		"boxes" : [ 			{
				"box" : 				{
					"id" : "obj-7",
					"maxclass" : "button",
					"numinlets" : 1,
					"numoutlets" : 1,
					"outlettype" : [ "bang" ],
					"parameter_enable" : 0,
					"patching_rect" : [ 316.0, 217.0, 24.0, 24.0 ]
				}

			}
, 			{
				"box" : 				{
					"id" : "obj-4",
					"maxclass" : "newobj",
					"numinlets" : 1,
					"numoutlets" : 1,
					"outlettype" : [ "" ],
					"patching_rect" : [ 316.0, 265.0, 91.0, 22.0 ],
					"saved_object_attributes" : 					{
						"filename" : "pattrvis.js",
						"parameter_enable" : 0
					}
,
					"text" : "js pattrvis.js 0 1"
				}

			}
, 			{
				"box" : 				{
					"id" : "obj-2",
					"maxclass" : "newobj",
					"numinlets" : 1,
					"numoutlets" : 2,
					"outlettype" : [ "", "" ],
					"patching_rect" : [ 397.736108880790653, 147.916665226220971, 60.236108880790653, 22.0 ],
					"text" : "pattrhub"
				}

			}
, 			{
				"box" : 				{
					"id" : "obj-19",
					"maxclass" : "newobj",
					"numinlets" : 1,
					"numoutlets" : 1,
					"outlettype" : [ "" ],
					"patcher" : 					{
						"fileversion" : 1,
						"appversion" : 						{
							"major" : 8,
							"minor" : 5,
							"revision" : 4,
							"architecture" : "x64",
							"modernui" : 1
						}
,
						"classnamespace" : "box",
						"rect" : [ 52.0, 180.0, 1464.0, 777.0 ],
						"bglocked" : 0,
						"openinpresentation" : 0,
						"default_fontsize" : 12.0,
						"default_fontface" : 0,
						"default_fontname" : "Arial",
						"gridonopen" : 1,
						"gridsize" : [ 15.0, 15.0 ],
						"gridsnaponopen" : 1,
						"objectsnaponopen" : 1,
						"statusbarvisible" : 2,
						"toolbarvisible" : 1,
						"lefttoolbarpinned" : 0,
						"toptoolbarpinned" : 0,
						"righttoolbarpinned" : 0,
						"bottomtoolbarpinned" : 0,
						"toolbars_unpinned_last_save" : 0,
						"tallnewobj" : 0,
						"boxanimatetime" : 200,
						"enablehscroll" : 1,
						"enablevscroll" : 1,
						"devicewidth" : 0.0,
						"description" : "",
						"digest" : "",
						"tags" : "",
						"style" : "",
						"subpatcher_template" : "",
						"assistshowspatchername" : 0,
						"boxes" : [ 							{
								"box" : 								{
									"comment" : "",
									"id" : "obj-5",
									"index" : 1,
									"maxclass" : "outlet",
									"numinlets" : 1,
									"numoutlets" : 0,
									"patching_rect" : [ 52.666679263114929, 470.0, 30.0, 30.0 ]
								}

							}
, 							{
								"box" : 								{
									"id" : "obj-29",
									"linecount" : 2,
									"maxclass" : "message",
									"numinlets" : 2,
									"numoutlets" : 1,
									"outlettype" : [ "" ],
									"patching_rect" : [ 1196.666673541069031, 364.333330392837524, 63.0, 35.0 ],
									"text" : "improvise $1"
								}

							}
, 							{
								"box" : 								{
									"id" : "obj-8",
									"maxclass" : "toggle",
									"numinlets" : 1,
									"numoutlets" : 1,
									"outlettype" : [ "int" ],
									"parameter_enable" : 0,
									"patching_rect" : [ 1196.666673541069031, 302.333330392837524, 24.0, 24.0 ],
									"varname" : "toggle[2]"
								}

							}
, 							{
								"box" : 								{
									"id" : "obj-4",
									"linecount" : 2,
									"maxclass" : "newobj",
									"numinlets" : 1,
									"numoutlets" : 3,
									"outlettype" : [ "", "", "" ],
									"patching_rect" : [ 1173.166673541069031, 245.333330392837524, 66.0, 35.0 ],
									"saved_object_attributes" : 									{
										"initial" : [ 0 ],
										"parameter_enable" : 0,
										"parameter_mappable" : 0
									}
,
									"text" : "pattr improvise",
									"varname" : "improvise"
								}

							}
, 							{
								"box" : 								{
									"comment" : "",
									"id" : "obj-35",
									"index" : 1,
									"maxclass" : "inlet",
									"numinlets" : 0,
									"numoutlets" : 1,
									"outlettype" : [ "" ],
									"patching_rect" : [ 14.333337545394897, 38.0, 30.0, 30.0 ]
								}

							}
, 							{
								"box" : 								{
									"id" : "obj-34",
									"maxclass" : "newobj",
									"numinlets" : 12,
									"numoutlets" : 12,
									"outlettype" : [ "", "", "", "", "", "", "", "", "", "", "", "" ],
									"patching_rect" : [ 14.333337545394897, 103.333330392837524, 935.0, 22.0 ],
									"text" : "route start_beat end_beat speed_active speed_numerator speed_denominator loop_length loop_section_active loop_section_beats improvise semitone_range max_continuity"
								}

							}
, 							{
								"box" : 								{
									"id" : "obj-33",
									"linecount" : 2,
									"maxclass" : "message",
									"numinlets" : 2,
									"numoutlets" : 1,
									"outlettype" : [ "" ],
									"patching_rect" : [ 1451.666673541069031, 361.333330392837524, 92.0, 35.0 ],
									"text" : "max_continuity $1"
								}

							}
, 							{
								"box" : 								{
									"id" : "obj-28",
									"linecount" : 2,
									"maxclass" : "message",
									"numinlets" : 2,
									"numoutlets" : 1,
									"outlettype" : [ "" ],
									"patching_rect" : [ 1333.666673541069031, 361.333330392837524, 98.0, 35.0 ],
									"text" : "semitone_range $1"
								}

							}
, 							{
								"box" : 								{
									"id" : "obj-11",
									"maxclass" : "number",
									"numinlets" : 1,
									"numoutlets" : 2,
									"outlettype" : [ "", "bang" ],
									"parameter_enable" : 0,
									"patching_rect" : [ 1451.666673541069031, 302.333330392837524, 50.0, 22.0 ],
									"varname" : "number[5]"
								}

							}
, 							{
								"box" : 								{
									"id" : "obj-7",
									"linecount" : 2,
									"maxclass" : "newobj",
									"numinlets" : 1,
									"numoutlets" : 3,
									"outlettype" : [ "", "", "" ],
									"patching_rect" : [ 1414.666673541069031, 245.333330392837524, 93.0, 35.0 ],
									"restore" : [ 0 ],
									"saved_object_attributes" : 									{
										"parameter_enable" : 0,
										"parameter_mappable" : 0
									}
,
									"text" : "pattr max_continuity",
									"varname" : "max_continuity"
								}

							}
, 							{
								"box" : 								{
									"id" : "obj-6",
									"maxclass" : "number",
									"numinlets" : 1,
									"numoutlets" : 2,
									"outlettype" : [ "", "bang" ],
									"parameter_enable" : 0,
									"patching_rect" : [ 1333.666673541069031, 302.333330392837524, 50.0, 22.0 ],
									"varname" : "number[2]"
								}

							}
, 							{
								"box" : 								{
									"id" : "obj-2",
									"linecount" : 2,
									"maxclass" : "newobj",
									"numinlets" : 1,
									"numoutlets" : 3,
									"outlettype" : [ "", "", "" ],
									"patching_rect" : [ 1293.166673541069031, 245.333330392837524, 100.0, 35.0 ],
									"restore" : [ 0 ],
									"saved_object_attributes" : 									{
										"parameter_enable" : 0,
										"parameter_mappable" : 0
									}
,
									"text" : "pattr semitone_range",
									"varname" : "semitone_range"
								}

							}
, 							{
								"box" : 								{
									"id" : "obj-31",
									"linecount" : 2,
									"maxclass" : "newobj",
									"numinlets" : 1,
									"numoutlets" : 1,
									"outlettype" : [ "" ],
									"patching_rect" : [ 1002.333341717720032, 361.333330392837524, 118.0, 35.0 ],
									"text" : "prepend loop_section_beats"
								}

							}
, 							{
								"box" : 								{
									"id" : "obj-24",
									"linecount" : 2,
									"maxclass" : "newobj",
									"numinlets" : 1,
									"numoutlets" : 3,
									"outlettype" : [ "", "", "" ],
									"patching_rect" : [ 1002.333341717720032, 245.333330392837524, 118.0, 35.0 ],
									"restore" : [ 0 ],
									"saved_object_attributes" : 									{
										"parameter_enable" : 0,
										"parameter_mappable" : 0
									}
,
									"text" : "pattr loop_section_beats",
									"varname" : "loop_section_beats"
								}

							}
, 							{
								"box" : 								{
									"id" : "obj-32",
									"linecount" : 2,
									"maxclass" : "message",
									"numinlets" : 2,
									"numoutlets" : 1,
									"outlettype" : [ "" ],
									"patching_rect" : [ 292.333348870277405, 359.333330392837524, 83.0, 35.0 ],
									"text" : "speed_active $1"
								}

							}
, 							{
								"box" : 								{
									"id" : "obj-26",
									"maxclass" : "toggle",
									"numinlets" : 1,
									"numoutlets" : 1,
									"outlettype" : [ "int" ],
									"parameter_enable" : 0,
									"patching_rect" : [ 292.333348870277405, 302.333330392837524, 24.0, 24.0 ],
									"varname" : "toggle[1]"
								}

							}
, 							{
								"box" : 								{
									"id" : "obj-17",
									"linecount" : 2,
									"maxclass" : "newobj",
									"numinlets" : 1,
									"numoutlets" : 3,
									"outlettype" : [ "", "", "" ],
									"patching_rect" : [ 260.333349227905273, 245.333330392837524, 82.999999284744263, 35.0 ],
									"saved_object_attributes" : 									{
										"initial" : [ 0 ],
										"parameter_enable" : 0,
										"parameter_mappable" : 0
									}
,
									"text" : "pattr speed_active",
									"varname" : "speed_active"
								}

							}
, 							{
								"box" : 								{
									"id" : "obj-30",
									"maxclass" : "number",
									"minimum" : 1,
									"numinlets" : 1,
									"numoutlets" : 2,
									"outlettype" : [ "", "bang" ],
									"parameter_enable" : 0,
									"patching_rect" : [ 533.023822120257819, 304.333330392837524, 50.0, 22.0 ],
									"varname" : "number[8]"
								}

							}
, 							{
								"box" : 								{
									"id" : "obj-27",
									"maxclass" : "number",
									"minimum" : 1,
									"numinlets" : 1,
									"numoutlets" : 2,
									"outlettype" : [ "", "bang" ],
									"parameter_enable" : 0,
									"patching_rect" : [ 400.690488270350897, 304.333330392837524, 50.0, 22.0 ],
									"varname" : "number[3]"
								}

							}
, 							{
								"box" : 								{
									"id" : "obj-18",
									"linecount" : 2,
									"maxclass" : "message",
									"numinlets" : 2,
									"numoutlets" : 1,
									"outlettype" : [ "" ],
									"patching_rect" : [ 533.023822120257819, 361.333330392837524, 118.0, 35.0 ],
									"text" : "speed_denominator $1"
								}

							}
, 							{
								"box" : 								{
									"id" : "obj-14",
									"linecount" : 2,
									"maxclass" : "newobj",
									"numinlets" : 1,
									"numoutlets" : 3,
									"outlettype" : [ "", "", "" ],
									"patching_rect" : [ 482.523822120257819, 245.333330392837524, 120.0, 35.0 ],
									"saved_object_attributes" : 									{
										"initial" : [ 1 ],
										"parameter_enable" : 0,
										"parameter_mappable" : 0
									}
,
									"text" : "pattr speed_denominator",
									"varname" : "speed_denominator"
								}

							}
, 							{
								"box" : 								{
									"id" : "obj-19",
									"linecount" : 2,
									"maxclass" : "message",
									"numinlets" : 2,
									"numoutlets" : 1,
									"outlettype" : [ "" ],
									"patching_rect" : [ 870.666679263114929, 361.333330392837524, 117.0, 35.0 ],
									"text" : "loop_section_active $1"
								}

							}
, 							{
								"box" : 								{
									"id" : "obj-16",
									"maxclass" : "toggle",
									"numinlets" : 1,
									"numoutlets" : 1,
									"outlettype" : [ "int" ],
									"parameter_enable" : 0,
									"patching_rect" : [ 870.666679263114929, 304.333330392837524, 24.0, 24.0 ],
									"varname" : "toggle"
								}

							}
, 							{
								"box" : 								{
									"id" : "obj-1",
									"linecount" : 2,
									"maxclass" : "newobj",
									"numinlets" : 1,
									"numoutlets" : 3,
									"outlettype" : [ "", "", "" ],
									"patching_rect" : [ 820.666679263114929, 245.333330392837524, 119.0, 35.0 ],
									"restore" : [ 0 ],
									"saved_object_attributes" : 									{
										"parameter_enable" : 0,
										"parameter_mappable" : 0
									}
,
									"text" : "pattr loop_section_active",
									"varname" : "loop_section_active"
								}

							}
, 							{
								"box" : 								{
									"id" : "obj-15",
									"linecount" : 2,
									"maxclass" : "message",
									"numinlets" : 2,
									"numoutlets" : 1,
									"outlettype" : [ "" ],
									"patching_rect" : [ 52.666679263114929, 361.333330392837524, 66.0, 35.0 ],
									"text" : "start_beat $1"
								}

							}
, 							{
								"box" : 								{
									"id" : "obj-13",
									"maxclass" : "number",
									"minimum" : 0,
									"numinlets" : 1,
									"numoutlets" : 2,
									"outlettype" : [ "", "bang" ],
									"parameter_enable" : 0,
									"patching_rect" : [ 52.666679263114929, 304.333330392837524, 50.0, 22.0 ],
									"varname" : "number"
								}

							}
, 							{
								"box" : 								{
									"id" : "obj-10",
									"linecount" : 2,
									"maxclass" : "newobj",
									"numinlets" : 1,
									"numoutlets" : 3,
									"outlettype" : [ "", "", "" ],
									"patching_rect" : [ 29.666679263114929, 245.333330392837524, 65.0, 35.0 ],
									"restore" : [ 0 ],
									"saved_object_attributes" : 									{
										"parameter_enable" : 0,
										"parameter_mappable" : 0
									}
,
									"text" : "pattr start_beat",
									"varname" : "start_beat"
								}

							}
, 							{
								"box" : 								{
									"id" : "obj-51",
									"linecount" : 2,
									"maxclass" : "message",
									"numinlets" : 2,
									"numoutlets" : 1,
									"outlettype" : [ "" ],
									"patching_rect" : [ 152.595250691686488, 361.333330392837524, 62.0, 35.0 ],
									"text" : "end_beat $1"
								}

							}
, 							{
								"box" : 								{
									"id" : "obj-45",
									"linecount" : 2,
									"maxclass" : "message",
									"numinlets" : 2,
									"numoutlets" : 1,
									"outlettype" : [ "" ],
									"patching_rect" : [ 707.880964977400708, 361.333330392837524, 74.0, 35.0 ],
									"text" : "loop_length $1"
								}

							}
, 							{
								"box" : 								{
									"id" : "obj-43",
									"linecount" : 2,
									"maxclass" : "message",
									"numinlets" : 2,
									"numoutlets" : 1,
									"outlettype" : [ "" ],
									"patching_rect" : [ 400.690488270350897, 361.333330392837524, 106.0, 35.0 ],
									"text" : "speed_numerator $1"
								}

							}
, 							{
								"box" : 								{
									"id" : "obj-37",
									"maxclass" : "number",
									"numinlets" : 1,
									"numoutlets" : 2,
									"outlettype" : [ "", "bang" ],
									"parameter_enable" : 0,
									"patching_rect" : [ 152.595250691686488, 304.333330392837524, 50.0, 22.0 ],
									"varname" : "number[4]"
								}

							}
, 							{
								"box" : 								{
									"id" : "obj-3",
									"linecount" : 2,
									"maxclass" : "newobj",
									"numinlets" : 1,
									"numoutlets" : 3,
									"outlettype" : [ "", "", "" ],
									"patching_rect" : [ 130.595250691686488, 245.333330392837524, 63.0, 35.0 ],
									"saved_object_attributes" : 									{
										"initial" : [ 0 ],
										"parameter_enable" : 0,
										"parameter_mappable" : 0
									}
,
									"text" : "pattr end_beat",
									"varname" : "end_beat"
								}

							}
, 							{
								"box" : 								{
									"id" : "obj-23",
									"linecount" : 2,
									"maxclass" : "newobj",
									"numinlets" : 1,
									"numoutlets" : 3,
									"outlettype" : [ "", "", "" ],
									"patching_rect" : [ 358.690488270350897, 245.333330392837524, 103.000000000000028, 35.0 ],
									"saved_object_attributes" : 									{
										"initial" : [ 1 ],
										"parameter_enable" : 0,
										"parameter_mappable" : 0
									}
,
									"text" : "pattr speed_numerator",
									"varname" : "speed_numerator"
								}

							}
, 							{
								"box" : 								{
									"id" : "obj-21",
									"linecount" : 2,
									"maxclass" : "newobj",
									"numinlets" : 1,
									"numoutlets" : 3,
									"outlettype" : [ "", "", "" ],
									"patching_rect" : [ 680.380964977400708, 245.333330392837524, 74.0, 35.0 ],
									"saved_object_attributes" : 									{
										"initial" : [ 0 ],
										"parameter_enable" : 0,
										"parameter_mappable" : 0
									}
,
									"text" : "pattr loop_length",
									"varname" : "loop_length"
								}

							}
, 							{
								"box" : 								{
									"id" : "obj-12",
									"maxclass" : "number",
									"minimum" : 0,
									"numinlets" : 1,
									"numoutlets" : 2,
									"outlettype" : [ "", "bang" ],
									"parameter_enable" : 0,
									"patching_rect" : [ 707.880964977400708, 304.333330392837524, 50.0, 22.0 ],
									"varname" : "number[1]"
								}

							}
 ],
						"lines" : [ 							{
								"patchline" : 								{
									"destination" : [ "obj-16", 0 ],
									"source" : [ "obj-1", 1 ]
								}

							}
, 							{
								"patchline" : 								{
									"destination" : [ "obj-13", 0 ],
									"source" : [ "obj-10", 1 ]
								}

							}
, 							{
								"patchline" : 								{
									"destination" : [ "obj-33", 0 ],
									"source" : [ "obj-11", 0 ]
								}

							}
, 							{
								"patchline" : 								{
									"destination" : [ "obj-45", 0 ],
									"source" : [ "obj-12", 0 ]
								}

							}
, 							{
								"patchline" : 								{
									"destination" : [ "obj-15", 0 ],
									"source" : [ "obj-13", 0 ]
								}

							}
, 							{
								"patchline" : 								{
									"destination" : [ "obj-30", 0 ],
									"source" : [ "obj-14", 1 ]
								}

							}
, 							{
								"patchline" : 								{
									"destination" : [ "obj-5", 0 ],
									"source" : [ "obj-15", 0 ]
								}

							}
, 							{
								"patchline" : 								{
									"destination" : [ "obj-19", 0 ],
									"source" : [ "obj-16", 0 ]
								}

							}
, 							{
								"patchline" : 								{
									"destination" : [ "obj-26", 0 ],
									"source" : [ "obj-17", 1 ]
								}

							}
, 							{
								"patchline" : 								{
									"destination" : [ "obj-5", 0 ],
									"source" : [ "obj-18", 0 ]
								}

							}
, 							{
								"patchline" : 								{
									"destination" : [ "obj-5", 0 ],
									"source" : [ "obj-19", 0 ]
								}

							}
, 							{
								"patchline" : 								{
									"destination" : [ "obj-6", 0 ],
									"source" : [ "obj-2", 1 ]
								}

							}
, 							{
								"patchline" : 								{
									"destination" : [ "obj-12", 0 ],
									"source" : [ "obj-21", 1 ]
								}

							}
, 							{
								"patchline" : 								{
									"destination" : [ "obj-27", 0 ],
									"source" : [ "obj-23", 1 ]
								}

							}
, 							{
								"patchline" : 								{
									"destination" : [ "obj-31", 0 ],
									"source" : [ "obj-24", 0 ]
								}

							}
, 							{
								"patchline" : 								{
									"destination" : [ "obj-32", 0 ],
									"source" : [ "obj-26", 0 ]
								}

							}
, 							{
								"patchline" : 								{
									"destination" : [ "obj-43", 0 ],
									"source" : [ "obj-27", 0 ]
								}

							}
, 							{
								"patchline" : 								{
									"destination" : [ "obj-5", 0 ],
									"source" : [ "obj-28", 0 ]
								}

							}
, 							{
								"patchline" : 								{
									"destination" : [ "obj-5", 0 ],
									"source" : [ "obj-29", 0 ]
								}

							}
, 							{
								"patchline" : 								{
									"destination" : [ "obj-37", 0 ],
									"source" : [ "obj-3", 1 ]
								}

							}
, 							{
								"patchline" : 								{
									"destination" : [ "obj-18", 0 ],
									"source" : [ "obj-30", 0 ]
								}

							}
, 							{
								"patchline" : 								{
									"destination" : [ "obj-5", 0 ],
									"source" : [ "obj-31", 0 ]
								}

							}
, 							{
								"patchline" : 								{
									"destination" : [ "obj-5", 0 ],
									"source" : [ "obj-32", 0 ]
								}

							}
, 							{
								"patchline" : 								{
									"destination" : [ "obj-5", 0 ],
									"source" : [ "obj-33", 0 ]
								}

							}
, 							{
								"patchline" : 								{
									"destination" : [ "obj-11", 0 ],
									"source" : [ "obj-34", 10 ]
								}

							}
, 							{
								"patchline" : 								{
									"destination" : [ "obj-12", 0 ],
									"source" : [ "obj-34", 5 ]
								}

							}
, 							{
								"patchline" : 								{
									"destination" : [ "obj-13", 0 ],
									"source" : [ "obj-34", 0 ]
								}

							}
, 							{
								"patchline" : 								{
									"destination" : [ "obj-16", 0 ],
									"source" : [ "obj-34", 6 ]
								}

							}
, 							{
								"patchline" : 								{
									"destination" : [ "obj-24", 0 ],
									"source" : [ "obj-34", 7 ]
								}

							}
, 							{
								"patchline" : 								{
									"destination" : [ "obj-26", 0 ],
									"source" : [ "obj-34", 2 ]
								}

							}
, 							{
								"patchline" : 								{
									"destination" : [ "obj-27", 0 ],
									"source" : [ "obj-34", 3 ]
								}

							}
, 							{
								"patchline" : 								{
									"destination" : [ "obj-30", 0 ],
									"source" : [ "obj-34", 4 ]
								}

							}
, 							{
								"patchline" : 								{
									"destination" : [ "obj-37", 0 ],
									"source" : [ "obj-34", 1 ]
								}

							}
, 							{
								"patchline" : 								{
									"destination" : [ "obj-6", 0 ],
									"source" : [ "obj-34", 9 ]
								}

							}
, 							{
								"patchline" : 								{
									"destination" : [ "obj-8", 0 ],
									"source" : [ "obj-34", 8 ]
								}

							}
, 							{
								"patchline" : 								{
									"destination" : [ "obj-34", 0 ],
									"source" : [ "obj-35", 0 ]
								}

							}
, 							{
								"patchline" : 								{
									"destination" : [ "obj-51", 0 ],
									"source" : [ "obj-37", 0 ]
								}

							}
, 							{
								"patchline" : 								{
									"destination" : [ "obj-8", 0 ],
									"source" : [ "obj-4", 1 ]
								}

							}
, 							{
								"patchline" : 								{
									"destination" : [ "obj-5", 0 ],
									"source" : [ "obj-43", 0 ]
								}

							}
, 							{
								"patchline" : 								{
									"destination" : [ "obj-5", 0 ],
									"source" : [ "obj-45", 0 ]
								}

							}
, 							{
								"patchline" : 								{
									"destination" : [ "obj-5", 0 ],
									"source" : [ "obj-51", 0 ]
								}

							}
, 							{
								"patchline" : 								{
									"destination" : [ "obj-28", 0 ],
									"source" : [ "obj-6", 0 ]
								}

							}
, 							{
								"patchline" : 								{
									"destination" : [ "obj-11", 0 ],
									"source" : [ "obj-7", 1 ]
								}

							}
, 							{
								"patchline" : 								{
									"destination" : [ "obj-29", 0 ],
									"source" : [ "obj-8", 0 ]
								}

							}
 ]
					}
,
					"patching_rect" : [ 278.5, 20.666666269302368, 86.236108880790653, 22.0 ],
					"saved_object_attributes" : 					{
						"description" : "",
						"digest" : "",
						"globalpatchername" : "",
						"tags" : ""
					}
,
					"text" : "p parameters",
					"varname" : "parameters"
				}

			}
, 			{
				"box" : 				{
					"id" : "obj-1",
					"maxclass" : "newobj",
					"numinlets" : 1,
					"numoutlets" : 2,
					"outlettype" : [ "", "" ],
					"patcher" : 					{
						"fileversion" : 1,
						"appversion" : 						{
							"major" : 8,
							"minor" : 5,
							"revision" : 4,
							"architecture" : "x64",
							"modernui" : 1
						}
,
						"classnamespace" : "box",
						"rect" : [ 42.0, 255.0, 1652.0, 667.0 ],
						"bglocked" : 0,
						"openinpresentation" : 0,
						"default_fontsize" : 12.0,
						"default_fontface" : 0,
						"default_fontname" : "Arial",
						"gridonopen" : 1,
						"gridsize" : [ 15.0, 15.0 ],
						"gridsnaponopen" : 1,
						"objectsnaponopen" : 1,
						"statusbarvisible" : 2,
						"toolbarvisible" : 1,
						"lefttoolbarpinned" : 0,
						"toptoolbarpinned" : 0,
						"righttoolbarpinned" : 0,
						"bottomtoolbarpinned" : 0,
						"toolbars_unpinned_last_save" : 0,
						"tallnewobj" : 0,
						"boxanimatetime" : 200,
						"enablehscroll" : 1,
						"enablevscroll" : 1,
						"devicewidth" : 0.0,
						"description" : "",
						"digest" : "",
						"tags" : "",
						"style" : "",
						"subpatcher_template" : "",
						"assistshowspatchername" : 0,
						"boxes" : [ 							{
								"box" : 								{
									"comment" : "",
									"id" : "obj-6",
									"index" : 1,
									"maxclass" : "outlet",
									"numinlets" : 1,
									"numoutlets" : 0,
									"patching_rect" : [ 17.454545454545439, 485.466646194458008, 30.0, 30.0 ]
								}

							}
, 							{
								"box" : 								{
									"id" : "obj-2",
									"linecount" : 2,
									"maxclass" : "message",
									"numinlets" : 2,
									"numoutlets" : 1,
									"outlettype" : [ "" ],
									"patching_rect" : [ 1215.055506323860072, 173.466646194458008, 193.0, 35.0 ],
									"text" : "score_player::speed_denominator $1"
								}

							}
, 							{
								"box" : 								{
									"id" : "obj-1",
									"linecount" : 2,
									"maxclass" : "newobj",
									"numinlets" : 1,
									"numoutlets" : 1,
									"outlettype" : [ "" ],
									"patching_rect" : [ 615.0, 173.466646194458008, 194.0, 35.0 ],
									"text" : "prepend score_player::loop_section_beats"
								}

							}
, 							{
								"box" : 								{
									"id" : "obj-5",
									"linecount" : 2,
									"maxclass" : "message",
									"numinlets" : 2,
									"numoutlets" : 1,
									"outlettype" : [ "" ],
									"patching_rect" : [ 825.455509459064388, 215.466646194458008, 145.0, 35.0 ],
									"text" : "improviser::speed::active $1"
								}

							}
, 							{
								"box" : 								{
									"id" : "obj-8",
									"linecount" : 2,
									"maxclass" : "message",
									"numinlets" : 2,
									"numoutlets" : 1,
									"outlettype" : [ "" ],
									"patching_rect" : [ 1215.055506323860072, 215.466646194458008, 180.0, 35.0 ],
									"text" : "improviser::speed_denominator $1"
								}

							}
, 							{
								"box" : 								{
									"id" : "obj-11",
									"linecount" : 2,
									"maxclass" : "message",
									"numinlets" : 2,
									"numoutlets" : 1,
									"outlettype" : [ "" ],
									"patching_rect" : [ 1002.0, 215.466646194458008, 168.0, 35.0 ],
									"text" : "improviser::speed_numerator $1"
								}

							}
, 							{
								"box" : 								{
									"id" : "obj-7",
									"linecount" : 2,
									"maxclass" : "message",
									"numinlets" : 2,
									"numoutlets" : 1,
									"outlettype" : [ "" ],
									"patching_rect" : [ 1708.266667485237122, 173.666644096374455, 154.0, 35.0 ],
									"text" : "improviser::max_continuity $1"
								}

							}
, 							{
								"box" : 								{
									"id" : "obj-4",
									"linecount" : 2,
									"maxclass" : "message",
									"numinlets" : 2,
									"numoutlets" : 1,
									"outlettype" : [ "" ],
									"patching_rect" : [ 1543.266667485237122, 173.666644096374455, 160.0, 35.0 ],
									"text" : "improviser::semitone_range $1"
								}

							}
, 							{
								"box" : 								{
									"id" : "obj-10",
									"linecount" : 2,
									"maxclass" : "message",
									"numinlets" : 2,
									"numoutlets" : 1,
									"outlettype" : [ "" ],
									"patching_rect" : [ 103.0, 173.466646194458008, 141.0, 35.0 ],
									"text" : "score_player::start_beat $1"
								}

							}
, 							{
								"box" : 								{
									"id" : "obj-27",
									"linecount" : 2,
									"maxclass" : "message",
									"numinlets" : 2,
									"numoutlets" : 1,
									"outlettype" : [ "" ],
									"patching_rect" : [ 400.055506323860072, 173.466646194458008, 193.0, 35.0 ],
									"text" : "score_player::loop_section::active $1"
								}

							}
, 							{
								"box" : 								{
									"id" : "obj-41",
									"linecount" : 2,
									"maxclass" : "message",
									"numinlets" : 2,
									"numoutlets" : 1,
									"outlettype" : [ "" ],
									"patching_rect" : [ 250.200001537799835, 173.466646194458008, 138.0, 35.0 ],
									"text" : "score_player::end_beat $1"
								}

							}
, 							{
								"box" : 								{
									"id" : "obj-28",
									"linecount" : 2,
									"maxclass" : "message",
									"numinlets" : 2,
									"numoutlets" : 1,
									"outlettype" : [ "" ],
									"patching_rect" : [ 1427.455509459064388, 173.666644096374455, 103.0, 35.0 ],
									"text" : "loop::loop_length $1"
								}

							}
, 							{
								"box" : 								{
									"id" : "obj-9",
									"linecount" : 2,
									"maxclass" : "message",
									"numinlets" : 2,
									"numoutlets" : 1,
									"outlettype" : [ "" ],
									"patching_rect" : [ 825.455509459064388, 173.466646194458008, 158.0, 35.0 ],
									"text" : "score_player::speed::active $1"
								}

							}
, 							{
								"box" : 								{
									"id" : "obj-3",
									"linecount" : 2,
									"maxclass" : "message",
									"numinlets" : 2,
									"numoutlets" : 1,
									"outlettype" : [ "" ],
									"patching_rect" : [ 1002.0, 173.466646194458008, 181.0, 35.0 ],
									"text" : "score_player::speed_numerator $1"
								}

							}
, 							{
								"box" : 								{
									"id" : "obj-34",
									"maxclass" : "newobj",
									"numinlets" : 12,
									"numoutlets" : 12,
									"outlettype" : [ "", "", "", "", "", "", "", "", "", "", "", "" ],
									"patching_rect" : [ 17.454545454545439, 101.000000238418579, 935.0, 22.0 ],
									"text" : "route improvise start_beat end_beat loop_section_active loop_section_beats speed_active speed_numerator speed_denominator loop_length semitone_range max_continuity"
								}

							}
, 							{
								"box" : 								{
									"comment" : "",
									"id" : "obj-32",
									"index" : 1,
									"maxclass" : "inlet",
									"numinlets" : 0,
									"numoutlets" : 1,
									"outlettype" : [ "" ],
									"patching_rect" : [ 17.454545454545439, 14.600000550727827, 30.0, 30.0 ]
								}

							}
, 							{
								"box" : 								{
									"comment" : "",
									"id" : "obj-33",
									"index" : 2,
									"maxclass" : "outlet",
									"numinlets" : 1,
									"numoutlets" : 0,
									"patching_rect" : [ 102.5, 485.466646194458008, 30.0, 30.0 ]
								}

							}
 ],
						"lines" : [ 							{
								"patchline" : 								{
									"destination" : [ "obj-33", 0 ],
									"source" : [ "obj-1", 0 ]
								}

							}
, 							{
								"patchline" : 								{
									"destination" : [ "obj-33", 0 ],
									"source" : [ "obj-10", 0 ]
								}

							}
, 							{
								"patchline" : 								{
									"destination" : [ "obj-33", 0 ],
									"source" : [ "obj-11", 0 ]
								}

							}
, 							{
								"patchline" : 								{
									"destination" : [ "obj-33", 0 ],
									"source" : [ "obj-2", 0 ]
								}

							}
, 							{
								"patchline" : 								{
									"destination" : [ "obj-33", 0 ],
									"source" : [ "obj-27", 0 ]
								}

							}
, 							{
								"patchline" : 								{
									"destination" : [ "obj-33", 0 ],
									"source" : [ "obj-28", 0 ]
								}

							}
, 							{
								"patchline" : 								{
									"destination" : [ "obj-33", 0 ],
									"source" : [ "obj-3", 0 ]
								}

							}
, 							{
								"patchline" : 								{
									"destination" : [ "obj-34", 0 ],
									"source" : [ "obj-32", 0 ]
								}

							}
, 							{
								"patchline" : 								{
									"destination" : [ "obj-1", 0 ],
									"source" : [ "obj-34", 4 ]
								}

							}
, 							{
								"patchline" : 								{
									"destination" : [ "obj-10", 0 ],
									"source" : [ "obj-34", 1 ]
								}

							}
, 							{
								"patchline" : 								{
									"destination" : [ "obj-11", 0 ],
									"order" : 0,
									"source" : [ "obj-34", 6 ]
								}

							}
, 							{
								"patchline" : 								{
									"destination" : [ "obj-2", 0 ],
									"order" : 1,
									"source" : [ "obj-34", 7 ]
								}

							}
, 							{
								"patchline" : 								{
									"destination" : [ "obj-27", 0 ],
									"source" : [ "obj-34", 3 ]
								}

							}
, 							{
								"patchline" : 								{
									"destination" : [ "obj-28", 0 ],
									"source" : [ "obj-34", 8 ]
								}

							}
, 							{
								"patchline" : 								{
									"destination" : [ "obj-3", 0 ],
									"order" : 1,
									"source" : [ "obj-34", 6 ]
								}

							}
, 							{
								"patchline" : 								{
									"destination" : [ "obj-4", 0 ],
									"source" : [ "obj-34", 9 ]
								}

							}
, 							{
								"patchline" : 								{
									"destination" : [ "obj-41", 0 ],
									"source" : [ "obj-34", 2 ]
								}

							}
, 							{
								"patchline" : 								{
									"destination" : [ "obj-5", 0 ],
									"order" : 0,
									"source" : [ "obj-34", 5 ]
								}

							}
, 							{
								"patchline" : 								{
									"destination" : [ "obj-6", 0 ],
									"source" : [ "obj-34", 0 ]
								}

							}
, 							{
								"patchline" : 								{
									"destination" : [ "obj-7", 0 ],
									"source" : [ "obj-34", 10 ]
								}

							}
, 							{
								"patchline" : 								{
									"destination" : [ "obj-8", 0 ],
									"order" : 0,
									"source" : [ "obj-34", 7 ]
								}

							}
, 							{
								"patchline" : 								{
									"destination" : [ "obj-9", 0 ],
									"order" : 1,
									"source" : [ "obj-34", 5 ]
								}

							}
, 							{
								"patchline" : 								{
									"destination" : [ "obj-33", 0 ],
									"source" : [ "obj-4", 0 ]
								}

							}
, 							{
								"patchline" : 								{
									"destination" : [ "obj-33", 0 ],
									"source" : [ "obj-41", 0 ]
								}

							}
, 							{
								"patchline" : 								{
									"destination" : [ "obj-33", 0 ],
									"source" : [ "obj-5", 0 ]
								}

							}
, 							{
								"patchline" : 								{
									"destination" : [ "obj-33", 0 ],
									"source" : [ "obj-7", 0 ]
								}

							}
, 							{
								"patchline" : 								{
									"destination" : [ "obj-33", 0 ],
									"source" : [ "obj-8", 0 ]
								}

							}
, 							{
								"patchline" : 								{
									"destination" : [ "obj-33", 0 ],
									"source" : [ "obj-9", 0 ]
								}

							}
 ]
					}
,
					"patching_rect" : [ 278.5, 89.0, 138.236108880790653, 22.0 ],
					"saved_object_attributes" : 					{
						"description" : "",
						"digest" : "",
						"globalpatchername" : "",
						"tags" : ""
					}
,
					"text" : "p translate_parameters"
				}

			}
, 			{
				"box" : 				{
					"id" : "obj-5",
					"maxclass" : "newobj",
					"numinlets" : 2,
					"numoutlets" : 2,
					"outlettype" : [ "", "" ],
					"patching_rect" : [ 16.5, 89.0, 220.736108880790653, 22.0 ],
					"text" : "routepass factor_oracle"
				}

			}
, 			{
				"box" : 				{
					"id" : "obj-3",
					"maxclass" : "newobj",
					"numinlets" : 1,
					"numoutlets" : 1,
					"outlettype" : [ "" ],
					"patching_rect" : [ 90.736108880790653, 503.0, 79.0, 22.0 ],
					"text" : "prepend beat"
				}

			}
, 			{
				"box" : 				{
					"id" : "obj-58",
					"maxclass" : "newobj",
					"numinlets" : 1,
					"numoutlets" : 1,
					"outlettype" : [ "" ],
					"patching_rect" : [ 90.736108880790653, 336.791666999999961, 109.0, 22.0 ],
					"text" : "djazz.score_player",
					"varname" : "score_player"
				}

			}
, 			{
				"box" : 				{
					"id" : "obj-49",
					"maxclass" : "newobj",
					"numinlets" : 1,
					"numoutlets" : 1,
					"outlettype" : [ "" ],
					"patching_rect" : [ 218.236108880790653, 336.791666999999961, 104.25, 22.0 ],
					"text" : "djazz.improviser",
					"varname" : "improviser"
				}

			}
, 			{
				"box" : 				{
					"id" : "obj-37",
					"maxclass" : "newobj",
					"numinlets" : 1,
					"numoutlets" : 1,
					"outlettype" : [ "" ],
					"patching_rect" : [ 90.736108880790653, 449.79166735762783, 151.0, 22.0 ],
					"text" : "djazz.loop_previous_beats",
					"varname" : "loop"
				}

			}
, 			{
				"box" : 				{
					"id" : "obj-42",
					"int" : 1,
					"maxclass" : "gswitch2",
					"numinlets" : 2,
					"numoutlets" : 2,
					"outlettype" : [ "", "" ],
					"parameter_enable" : 0,
					"patching_rect" : [ 90.736108880790653, 190.499999582767487, 146.5, 45.166666686534938 ],
					"varname" : "gswitch2[2]"
				}

			}
, 			{
				"box" : 				{
					"comment" : "",
					"id" : "obj-94",
					"index" : 1,
					"maxclass" : "inlet",
					"numinlets" : 0,
					"numoutlets" : 1,
					"outlettype" : [ "" ],
					"patching_rect" : [ 16.5, 12.666666269302368, 30.0, 30.0 ]
				}

			}
, 			{
				"box" : 				{
					"comment" : "",
					"id" : "obj-95",
					"index" : 1,
					"maxclass" : "outlet",
					"numinlets" : 1,
					"numoutlets" : 0,
					"patching_rect" : [ 90.736108880790653, 550.79166735762783, 30.0, 30.0 ]
				}

			}
 ],
		"lines" : [ 			{
				"patchline" : 				{
					"destination" : [ "obj-2", 0 ],
					"source" : [ "obj-1", 1 ]
				}

			}
, 			{
				"patchline" : 				{
					"destination" : [ "obj-42", 0 ],
					"midpoints" : [ 288.0, 161.749999791383743, 100.236108880790653, 161.749999791383743 ],
					"source" : [ "obj-1", 0 ]
				}

			}
, 			{
				"patchline" : 				{
					"destination" : [ "obj-1", 0 ],
					"source" : [ "obj-19", 0 ]
				}

			}
, 			{
				"patchline" : 				{
					"destination" : [ "obj-95", 0 ],
					"source" : [ "obj-3", 0 ]
				}

			}
, 			{
				"patchline" : 				{
					"destination" : [ "obj-3", 0 ],
					"source" : [ "obj-37", 0 ]
				}

			}
, 			{
				"patchline" : 				{
					"destination" : [ "obj-37", 0 ],
					"order" : 1,
					"source" : [ "obj-4", 0 ]
				}

			}
, 			{
				"patchline" : 				{
					"destination" : [ "obj-49", 0 ],
					"order" : 0,
					"source" : [ "obj-4", 0 ]
				}

			}
, 			{
				"patchline" : 				{
					"destination" : [ "obj-58", 0 ],
					"order" : 2,
					"source" : [ "obj-4", 0 ]
				}

			}
, 			{
				"patchline" : 				{
					"destination" : [ "obj-49", 0 ],
					"source" : [ "obj-42", 1 ]
				}

			}
, 			{
				"patchline" : 				{
					"destination" : [ "obj-58", 0 ],
					"source" : [ "obj-42", 0 ]
				}

			}
, 			{
				"patchline" : 				{
					"destination" : [ "obj-37", 0 ],
					"midpoints" : [ 227.736108880790653, 397.291667178813896, 100.236108880790653, 397.291667178813896 ],
					"source" : [ "obj-49", 0 ]
				}

			}
, 			{
				"patchline" : 				{
					"destination" : [ "obj-42", 1 ],
					"source" : [ "obj-5", 1 ]
				}

			}
, 			{
				"patchline" : 				{
					"destination" : [ "obj-49", 0 ],
					"midpoints" : [ 26.0, 286.895833499999981, 227.736108880790653, 286.895833499999981 ],
					"source" : [ "obj-5", 0 ]
				}

			}
, 			{
				"patchline" : 				{
					"destination" : [ "obj-37", 0 ],
					"source" : [ "obj-58", 0 ]
				}

			}
, 			{
				"patchline" : 				{
					"destination" : [ "obj-4", 0 ],
					"source" : [ "obj-7", 0 ]
				}

			}
, 			{
				"patchline" : 				{
					"destination" : [ "obj-5", 0 ],
					"source" : [ "obj-94", 0 ]
				}

			}
 ]
	}

}
